<svg width="67" height="64" viewBox="0 0 67 64" fill="none" xmlns="http://www.w3.org/2000/svg">
<path fill-rule="evenodd" clip-rule="evenodd" d="M40.0725 63.8978C38.7677 63.8291 37.2559 63.8291 36.568 63.4855C36.6367 63.28 36.7054 63.0746 36.8436 62.9357C36.7742 62.799 36.7054 62.7303 36.6367 62.6616C36.4993 62.6616 36.3619 62.6616 36.2244 62.6616C36.087 63.0045 35.9496 63.348 35.8121 63.7603C33.9575 63.7603 31.0027 64.1039 29.9033 63.348C30.2469 63.0045 30.1101 62.4547 30.1101 62.4547C30.7973 61.7683 30.6599 60.5994 30.6599 60.394C30.866 60.1871 31.0722 59.9817 31.3463 59.8442C31.3463 56.752 34.644 57.5079 32.4458 53.5223C25.8497 47.7509 40.691 47.1332 28.1861 40.8807C22.8269 40.8807 13.2074 53.1788 12.6576 58.1256C12.3828 58.2623 12.1774 58.4692 11.9712 58.6753C11.9712 58.9509 11.9712 59.2945 11.9712 59.6374C11.4902 59.8442 11.0092 60.1184 10.5976 60.394C10.4602 61.2873 10.3227 62.1806 10.254 63.0739C8.32996 63.0739 6.40664 63.0739 4.5513 63.0739C4.5513 61.4927 9.36071 55.3777 10.5289 55.0355C11.0099 53.2489 14.3076 43.2858 14.1014 43.0796C15.1314 40.6059 16.1629 38.1328 17.1929 35.6597C17.4678 34.7664 17.6052 33.5982 18.0862 33.3921C18.0862 33.1172 18.0862 32.9111 18.155 32.7049C15.2002 30.7809 -2.45704 28.9263 2.42109 35.7964C4.27571 37.3082 18.3604 44.6594 9.63486 48.1639C9.01713 46.2399 10.4595 44.3852 9.42944 42.6673C5.99363 39.85 1.80265 37.5831 0.0847484 34.4221C0.0847484 33.8037 -0.46498 32.4222 1.23575 30.8832C8.24479 28.2727 16.4371 31.4673 18.9108 29.6127C20.5264 26.5641 31.7915 12.9326 50.4122 0.849986C58.9759 -3.38393 63.8362 18.1214 66.8597 22.4498C66.6543 24.0989 64.3866 26.1597 66.5848 27.2592C66.5848 28.2899 62.265 31.2612 64.8075 33.8037C65.9757 41.7046 61.9221 49.4688 63.2957 57.301C63.4332 57.3712 66.1131 62.1799 65.9757 63.416C64.3952 63.416 62.8147 63.416 61.3037 63.416C61.167 63.2106 61.0288 63.0037 60.9608 62.7983C61.648 62.1104 60.3424 58.6754 60.2042 58.3332C60.0675 58.2631 59.9981 58.263 59.9294 58.263C59.8607 57.233 59.7926 56.2023 59.7926 55.1722C58.6245 54.6225 57.3883 54.6225 56.7004 54.1422C50.38 40.0568 52.6469 59.9817 42.8219 50.1574C40.2107 50.1574 39.4548 52.4243 38.2873 54.3476C38.0125 54.3476 37.8063 54.3476 37.6002 54.3476C36.3633 56.8909 41.9973 60.0504 41.9973 63.7603C41.3102 63.7603 40.6917 63.8291 40.0725 63.8978Z" fill="#34680C"/>
<path fill-rule="evenodd" clip-rule="evenodd" d="M34.0269 40.8814C32.9275 36.4836 34.0957 32.2239 34.2331 28.514C30.866 29.6134 29.904 30.5747 27.2248 33.0485C25.9879 21.2995 29.355 20.3382 38.7677 12.9863C56.7684 -4.19063 53.7191 -0.0318651 63.0624 18.7255C62.3065 19.4814 60.497 18.3841 60.497 20.2394C61.5277 21.2701 61.8713 22.2322 59.7411 22.2322C56.6797 15.7764 54.3526 15.8952 48.9355 15.7349C43.7138 17.4528 32.7886 21.8499 42.683 26.7968C42.2707 27.2091 40.0038 27.4152 39.3854 27.6214C39.3166 27.7588 39.3167 27.8962 39.3167 28.1024C39.6602 28.5834 40.3467 28.927 41.7897 29.3393C41.7897 29.5454 41.7897 29.7516 41.8592 29.9577C40.5536 31.2626 34.1637 40.9502 34.0269 40.8814Z" fill="#0F2F04"/>
<path fill-rule="evenodd" clip-rule="evenodd" d="M51.8566 29.6242C51.7228 29.5554 51.5889 29.4867 51.455 29.4867C51.3205 29.0751 51.2546 28.6629 51.1873 28.3193C50.4515 28.6629 50.3842 29.35 49.3807 29.35C47.3722 25.159 50.05 23.716 45.4302 21.5858C42.887 16.2947 58.9523 13.959 58.9523 25.5706C57.0776 28.937 56.8772 29.3493 55.0025 27.1511C53.9324 27.9757 52.8616 28.8003 51.8566 29.6242Z" fill="#0F2F04"/>
<path fill-rule="evenodd" clip-rule="evenodd" d="M60.3889 26.6915C60.3889 21.4011 64.0309 24.7675 62.1755 20.4391C65.748 18.0348 66.7108 27.7223 60.3889 26.6915Z" fill="#0F2F04"/>
<path fill-rule="evenodd" clip-rule="evenodd" d="M45.1067 26.6586C40.5034 25.0094 37.4119 21.1621 43.7324 19.5816C43.7324 21.6424 40.5034 22.3295 45.5877 23.2228C45.9993 23.8413 46.4116 25.8348 45.1067 26.6586Z" fill="#0F2F04"/>
<path fill-rule="evenodd" clip-rule="evenodd" d="M54.722 45.6923C54.4836 45.7517 54.1851 45.5728 54.0663 45.3938C54.0663 44.9765 54.3648 44.7968 54.4242 44.7374C54.722 44.7374 54.961 44.9758 55.0205 45.2149C54.961 45.5728 54.8415 45.6923 54.722 45.6923Z" fill="#0F2F04"/>
<path fill-rule="evenodd" clip-rule="evenodd" d="M56.155 45.6343C55.8565 45.5749 55.7971 45.2764 55.6783 44.8591C55.6783 44.5606 55.9166 44.5012 56.0354 44.5606C56.2745 44.7396 56.5129 44.9779 56.5129 45.2764C56.4535 45.5148 56.2745 45.6343 56.155 45.6343Z" fill="#0F2F04"/>
<path fill-rule="evenodd" clip-rule="evenodd" d="M49.5196 44.9808C49.4008 44.7424 49.4008 44.5635 49.5196 44.5034C50.594 44.5034 51.8466 44.086 52.6218 44.6823C52.4436 44.9808 52.2045 45.2191 51.8466 45.2191C51.1308 45.2199 50.1166 45.9356 49.5196 44.9808Z" fill="#0F2F04"/>
<path fill-rule="evenodd" clip-rule="evenodd" d="M60.3502 44.5177C60.172 43.265 60.5893 42.5493 61.0066 41.6545C62.3194 39.9846 62.9758 38.0755 63.9299 36.1064C63.9299 35.9869 64.6457 33.2432 64.6457 33.2432C65.0036 34.9132 64.3472 36.6432 63.8104 38.3132C63.2134 39.1485 61.5435 42.0711 61.4246 42.9064C61.4246 43.1455 61.7825 43.2049 61.842 43.1455C62.6172 42.9064 62.9157 41.7139 63.6909 41.535C63.6909 42.4891 62.6773 42.847 62.2593 43.6229C62.2593 43.6229 60.6487 44.9357 60.3502 44.5177Z" fill="#34680C"/>
<path fill-rule="evenodd" clip-rule="evenodd" d="M53.6404 43.6745C52.6855 43.7339 51.672 43.0181 50.6577 43.615C49.9419 43.5556 49.2862 43.794 48.6885 43.3767C48.0329 42.6015 47.5554 41.9451 47.5554 40.8714C47.6148 40.394 47.9735 40.215 48.3908 40.0361C49.4645 40.394 50.3005 40.0361 51.2539 39.9767C52.3276 39.1413 53.6998 38.903 54.8329 39.6188C55.4893 40.394 55.9073 41.0504 55.7878 41.9451C55.2509 42.8985 54.4156 43.197 53.6404 43.6745Z" fill="#0F2F04"/>
<path fill-rule="evenodd" clip-rule="evenodd" d="M49.5174 43.0016C49.1595 43.0016 48.6227 42.8821 48.4437 42.4648C48.5633 41.8678 48.3242 41.5099 48.0257 41.152C48.6227 41.152 49.1595 41.6294 49.5768 42.0467C49.8159 42.2851 49.8159 42.7625 49.637 42.9415C49.5768 43.0016 49.5768 43.0016 49.5174 43.0016Z" fill="#34680C"/>
<path fill-rule="evenodd" clip-rule="evenodd" d="M52.3834 42.8857C52.1451 42.7661 51.7271 42.8255 51.6075 42.4082C51.6075 41.7518 52.1451 41.3345 52.3834 41.1556C53.0992 40.8571 53.8744 41.0361 54.5308 40.6187C54.6496 40.6187 54.7692 40.7383 54.6496 40.9172C53.9338 41.1556 54.2323 42.23 53.5767 42.5278C53.1586 42.7661 52.7413 42.6459 52.3834 42.8857Z" fill="#34680C"/>
<path fill-rule="evenodd" clip-rule="evenodd" d="M45.5111 42.4175C44.8547 40.4491 43.1848 38.5401 43.3043 36.3333C42.7675 34.6633 42.7675 33.9475 43.2442 32.516C43.5427 32.7543 43.9006 33.1723 44.0201 33.6491C43.96 34.007 43.6622 34.0671 43.9006 34.4844C44.3179 35.0806 44.7352 35.6776 45.2134 36.1543C45.6307 37.228 45.7495 38.3611 46.287 39.3754C46.287 39.3754 46.5254 41.0454 46.466 41.7612C46.048 41.8807 46.1675 41.1048 45.7495 41.2243C45.5111 41.2243 45.4517 41.4627 45.5111 41.5228C45.7495 42.0596 45.7495 42.4769 45.5111 42.4175Z" fill="#0F2F04"/>
<path fill-rule="evenodd" clip-rule="evenodd" d="M56.7391 40.9223C56.4413 40.2666 56.4413 39.5501 55.6654 39.0734C54.0548 37.641 53.0406 38.4771 52.8616 36.1501C53.2796 35.0764 53.0406 33.8237 53.4586 32.8696C54.5323 30.1853 57.5572 30.9384 58.273 28.3737C58.452 28.1353 58.6309 28.0752 58.8106 28.1353C59.7046 29.1496 59.3639 28.277 59.9007 29.5297C59.9007 30.4244 59.9007 31.2598 59.7819 32.0944C59.7819 32.0944 59.9007 33.0485 60.1391 32.3335C60.318 31.856 60.6766 31.4981 61.0939 31.3786C61.6308 31.438 61.9286 32.035 62.0481 32.4523C62.0481 33.6455 62.824 35.017 61.9887 35.9117C61.3323 37.3433 59.1849 39.0132 58.2902 40.5644C57.7533 40.147 58.2902 39.3117 58.1707 38.5365C58.5887 37.2245 59.0654 36.1508 59.7819 35.0764C59.8413 34.5989 60.0797 33.9433 59.8413 33.5854C59.7819 33.526 59.6624 33.4064 59.6624 33.4064C59.1849 34.3613 58.6488 35.7327 57.5744 36.3891C57.097 36.5087 56.5601 36.3891 56.3218 36.8064C56.5007 37.5816 57.1564 38.2981 57.097 39.2523C57.1564 39.7891 57.1564 40.2065 56.7391 40.9223Z" fill="#0F2F04"/>
<path fill-rule="evenodd" clip-rule="evenodd" d="M48.3743 38.4277C47.8976 37.1751 47.8375 33.2382 47.957 32.2239C48.6134 31.8066 51.4766 31.5675 52.1924 32.2239C52.1924 34.3119 52.3713 36.6976 51.1781 38.3676C50.5818 39.0841 49.448 38.7856 48.3743 38.4277Z" fill="#0F2F04"/>
<path fill-rule="evenodd" clip-rule="evenodd" d="M47.0609 37.8264C46.703 36.9317 45.9872 35.858 45.9277 34.7242C46.1661 34.6047 46.7029 34.1874 46.942 34.4858C47.0608 35.44 47.2999 36.2159 47.121 37.1701C47.1804 37.349 47.2999 37.5874 47.1804 37.7663C47.121 37.8264 47.0609 37.8264 47.0609 37.8264Z" fill="#0F2F04"/>
<path fill-rule="evenodd" clip-rule="evenodd" d="M55.1314 34.0836C55.072 34.0836 54.8931 34.0242 54.8931 33.8452C54.8329 33.0099 55.3698 32.2941 55.7878 31.8174C56.6231 31.4595 57.3983 31.4001 57.9352 30.6241C58.1735 30.0272 58.3525 29.5504 58.4126 29.073C58.4126 28.9535 58.5916 28.8941 58.651 28.9535C58.89 29.7287 58.5915 30.564 58.4126 31.1009C58.1735 32.1151 57.7562 32.8903 56.9803 33.5467C56.5036 34.0836 55.9073 33.1888 55.4893 33.7851C55.3698 33.964 55.251 34.0836 55.1314 34.0836Z" fill="#34680C"/>
<path fill-rule="evenodd" clip-rule="evenodd" d="M44.7438 32.5081C43.9686 31.9712 44.0881 31.0171 44.8633 31.0171C45.937 31.6133 46.0566 33.0449 46.6528 33.7013C45.9964 33.8795 45.0423 32.6269 44.7438 32.5081Z" fill="#0F2F04"/>
</svg>
